<?xml version="1.0" standalone="no"?><!DOCTYPE svg PUBLIC "-//W3C//DTD SVG 1.1//EN" "http://www.w3.org/Graphics/SVG/1.1/DTD/svg11.dtd"><svg t="1698419475484" class="icon" viewBox="0 0 1024 1024" version="1.1" xmlns="http://www.w3.org/2000/svg" p-id="1702" xmlns:xlink="http://www.w3.org/1999/xlink" width="200" height="200"><path d="M740.26666667 222.1408l15.2192 30.75733333c46.22933333 10.5696 78.56853333 15.85386667 92.18133333 15.85386667 20.42026667 0-62.3168 95.46026667-45.86026667 95.46026667 16.4576 0 81.36-57.5936 81.36-111.31413334 0-53.71946667-10.99946667-55.5232-68.096-55.5232-38.064 0-62.9984 8.256-74.80426666 24.76586667zM296.50133333 222.09813333L281.28 252.85653333c-46.22826667 10.56853333-78.56853333 15.8528-92.18133333 15.8528-20.4192 0 62.31786667 95.46133333 45.86026666 95.46133334-16.4576 0-81.36-57.5936-81.36-111.31413334S164.59946667 197.33333333 221.696 197.33333333c38.064 0 62.99946667 8.25493333 74.80533333 24.7648z" fill="#FED1D2" p-id="1703"></path><path d="M512 932.26666667c225.62666667 0 411.3664-155.17333333 411.3664-380.8 0-64.33706667-28.69546667-128.7808-60.43306667-184.53333334-79.56373333-139.7664-119.8336-251.73333333-350.93333333-251.73333333S242.32533333 229.36 163.92533333 366.93333333c-31.12533333 54.6176-62.368 102.28053333-62.368 166.4 0 225.62666667 184.816 398.93333333 410.44266667 398.93333334z" fill="#FCDCDC" p-id="1704"></path><path d="M442.03626667 577.8368c25.6448-4.89493333 50.9216-6.8448 75.8304-5.85173333 25.01226667 0.99626667 50.39466667 3.99466667 76.14826666 8.99413333C642.39786667 590.3712 677.33333333 632.74026667 677.33333333 682.02666667v24.58773333c0 56.84906667-46.08533333 102.93333333-102.93333333 102.93333333h-113.06666667c-56.848 0-102.93333333-46.08426667-102.93333333-102.93333333v-27.66933333c0-49.408 35.104-91.84533333 83.63626667-101.10826667z" fill="#F6B1B1" p-id="1705"></path><path d="M444.74773333 599.90826667c23.44533333-3.8272 46.5728-5.3216 69.3856-4.48213334 23.07626667 0.84906667 46.47573333 3.3088 70.19946667 7.37706667 49.41333333 8.47466667 85.53386667 51.31733333 85.53386667 101.45173333v12.51733334c0 51.2384-41.53706667 92.77546667-92.77653334 92.77546666H451.17653333c-51.23946667 0-92.77653333-41.536-92.77653333-92.77546666v-15.27466667c0-50.448 36.56-93.46133333 86.34773333-101.58933333z" fill="#FBD0D1" p-id="1706"></path><path d="M429.86666667 699.73333333m21.86666666 0l0 0q21.86666667 0 21.86666667 21.86666667l0 18.13333333q0 21.86666667-21.86666667 21.86666667l0 0q-21.86666667 0-21.86666666-21.86666667l0-18.13333333q0-21.86666667 21.86666666-21.86666667Z" fill="#C47375" p-id="1707"></path><path d="M563.2 699.73333333m21.86666667 0l0 0q21.86666667 0 21.86666666 21.86666667l0 18.13333333q0 21.86666667-21.86666666 21.86666667l0 0q-21.86666667 0-21.86666667-21.86666667l0-18.13333333q0-21.86666667 21.86666667-21.86666667Z" fill="#C47375" p-id="1708"></path><path d="M619.199968 547.73343787m-23.1822208-6.21165654a24 24 0 1 0 46.36444053 12.42331414 24 24 0 1 0-46.36444053-12.42331414Z" fill="#691111" p-id="1709"></path><path d="M614.6546624 539.0126976m-1.24233067-4.63644373a4.8 4.8 0 1 0 2.4846624 9.27288746 4.8 4.8 0 1 0-2.4846624-9.27288746Z" fill="#FFF5F5" p-id="1710"></path><path d="M595.81699627 550.51704533c7.7691968-1.13978667 14.1990784 0.11561387 19.29059946 3.7615296 5.09049173 3.646192 14.0843552 3.69334827 26.98000854 0.1396864-0.75489173 2.37552427-1.50459093 4.1522336-2.24854507 5.33218987-5.7790432 9.14824533-14.91229867 13.36567787-25.76081387 11.4578048C602.7626976 567.45435733 596.67517867 560.55703573 595.81699627 550.51704533z" fill="#440606" p-id="1711"></path><path d="M625.52984 554.87171093m-1.79447893-6.69708586a6.93333333 6.93333333 0 1 0 3.58895786 13.39417066 6.93333333 6.93333333 0 1 0-3.58895786-13.39417066Z" fill="#FFF5F5" p-id="1712"></path><path d="M391.99992853 550.93344107m-22.82535573-7.41640854a24 24 0 1 0 45.65071253 14.832816 24 24 0 1 0-45.65071253-14.832816Z" fill="#691111" p-id="1713"></path><path d="M395.98095253 542.13291627m-4.565072-1.48328107a4.8 4.8 0 1 0 9.13014294 2.9665632 4.8 4.8 0 1 0-9.13014294-2.9665632Z" fill="#FFF5F5" p-id="1714"></path><path d="M368.5026016 552.48875733c7.8189184-0.72994773 14.17460373 0.8584768 19.06774293 4.7666176 4.89313813 3.9081408 13.87144533 4.425232 26.93593387 1.55160214-0.87787627 2.33248107-1.7187936 4.06796373-2.52511253 5.2068032C405.73158613 572.84771733 396.3905472 576.58124267 385.65682027 574.1075328 374.55271253 569.76721173 368.83474987 562.5606144 368.5026016 552.48875733z" fill="#440606" p-id="1715"></path><path d="M383.60584 556.0569536m-6.59399147-2.14251733a6.93333333 6.93333333 0 1 0 13.18798294 4.28503573 6.93333333 6.93333333 0 1 0-13.18798294-4.28503573Z" fill="#FFF5F5" p-id="1716"></path><path d="M304 581.33333333m13.86666667 0l20.26666666 0q13.86666667 0 13.86666667 13.86666667l0 0q0 13.86666667-13.86666667 13.86666667l-20.26666666 0q-13.86666667 0-13.86666667-13.86666667l0 0q0-13.86666667 13.86666667-13.86666667Z" fill="#F0AFAF" p-id="1717"></path><path d="M653.86666667 581.33333333m13.86666666 0l20.26666667 0q13.86666667 0 13.86666667 13.86666667l0 0q0 13.86666667-13.86666667 13.86666667l-20.26666667 0q-13.86666667 0-13.86666666-13.86666667l0 0q0-13.86666667 13.86666666-13.86666667Z" fill="#F0AFAF" p-id="1718"></path><path d="M488.3776 837.0944a2.66666667 2.66666667 0 0 1-1.07413333-3.616c0.70186667-1.29386667 2.2112-1.7632 3.616-1.07306667 9.53066667 4.68906667 14.02666667 0 20.7936 0 6.76373333 0 9.10506667 4.68906667 20.784 0.00533334 1.65866667-0.66453333 2.912-0.23253333 3.62026666 1.0592a2.66666667 2.66666667 0 0 1-1.05813333 3.6192c-7.81866667 4.28053333-15.5904 6.4384-23.29066667 6.4384-7.696 0-15.50186667-2.1568-23.392-6.43306667z" fill="#C47375" p-id="1719"></path><path d="M225.06666667 197.33333333c18.1088 0 3.11146667 64.19413333-13.8208 69.2-16.93333333 5.00693333 15.9328 103.2 0 108.73386667C195.312 380.8 115.05386667 296.42666667 127.6704 241.06666667c12.6176-55.36 79.28746667-43.73333333 97.39626667-43.73333334zM792.2976 199.32373333c-17.9328 2.52053333 5.85173333 64.00213333 23.31733333 66.60373334 17.46453333 2.6016-1.41653333 104.4128 15.1328 107.67466666 16.54826667 3.26186667 84.28266667-91.46026667 64.08426667-144.5248-20.1984-53.06666667-84.60266667-32.27306667-102.5344-29.7536z" fill="#FED1D2" p-id="1720"></path><path d="M778.35733333 901.38346667l-69.696-89.20533334c-5.81333333-14.2784-9.57866667-25.04-11.296-32.288-1.4592-6.16-2.62293333-14.77653333-3.49013333-25.85173333a5.33333333 5.33333333 0 0 1 5.61066667-5.7408c38.656 2.13333333 60.57706667 1.8112 65.7664-0.9632 5.09653333-2.72533333 10.19733333-18.59946667 15.30133333-47.62346667a5.33333333 5.33333333 0 0 1 7.12-4.07146666c25.7024 9.60853333 42.30613333 18.97386667 49.8112 28.09493333 6.79253333 8.25386667 26.464 29.36853333 59.01333333 63.34186667 18.46186667 13.0592 31.54453333 33.49333333 34.50666667 57.62453333 5.6 45.60746667-27.0688 87.1488-72.96853333 92.784a83.7888 83.7888 0 0 1-79.68-36.10133333zM265.63093333 903.14346667l58.304-97.03466667c4.02986667-14.88 6.45546667-26.02026667 7.2768-33.42186667 0.6976-6.29333333 0.8032-14.98773333 0.3136-26.08533333a5.33333333 5.33333333 0 0 0-6.2688-5.01546667c-38.10666667 6.82773333-59.904 9.18186667-65.39306666 7.06026667-5.39093333-2.08426667-12.38826667-17.2192-20.99093334-45.4048a5.33333333 5.33333333 0 0 0-7.56266666-3.17333333c-24.34026667 12.66986667-39.67893333 23.98933333-46.016 33.95626666-5.73653333 9.0208-22.688 32.37333333-50.8544 70.06186667-16.7328 15.21173333-27.22773333 37.088-27.22773334 61.40053333 0 45.94986667 37.48906667 83.2 83.73333334 83.2a83.7888 83.7888 0 0 0 74.68586666-45.54346666z" fill="#FBD0D1" p-id="1721"></path></svg>